<?xml version="1.0" encoding="UTF-8"?>
<svg width="1000px" height="1001px" viewBox="0 0 1000 1001" version="1.1" xmlns="http://www.w3.org/2000/svg" xmlns:xlink="http://www.w3.org/1999/xlink">
    <title>barad</title>
    <g id="barad" stroke="none" stroke-width="1" fill="none" fill-rule="evenodd" transform="translate(0.000000, 1.000000)">
        <path d="M500,0 C776.142375,0 1000,223.857625 1000,500 C1000,776.142375 776.142375,1000 500,1000 C223.857625,1000 0,776.142375 0,500 C0,223.857625 223.857625,0 500,0 Z M450,300 L250,300 L250,700 L750,700 L750,300 L550,300 L550,400 L450,400 L450,300 Z M450,500 L450,600 L350,600 L350,500 L450,500 Z M650,500 L650,600 L550,600 L550,500 L650,500 Z" id="Combined-Shape" fill="#000000"></path>
    </g>
</svg>